<svg width="60" height="60" viewBox="0 0 60 60" fill="none" xmlns="http://www.w3.org/2000/svg">
<path d="M28 25.9758C26.1233 26.6391 24.1038 27 22 27C18.6859 27 15.6856 28.3434 13.514 30.5154C12.007 32.0227 12.8107 34.4054 14.7171 35.3586C15.775 35.8875 17.0438 35.4178 17.9088 34.6111C18.9806 33.6116 20.4189 33 22 33C25.3137 33 28 35.6863 28 39C28 42.3137 25.3137 45 22 45C20.2924 45 18.7514 44.2867 17.6587 43.1417C16.8419 42.2858 15.6023 41.7418 14.5148 42.2079C12.5559 43.0475 11.6135 45.3785 13.0297 46.9711C15.2278 49.4429 18.432 51 22 51C28.6274 51 34 45.6274 34 39C34 38.4923 33.9684 37.992 33.9072 37.5009C36.9364 40.1749 39.0585 43.8525 39.7534 48.0134C40.0263 49.6477 41.3431 51 43 51C44.6568 51 46.0197 49.651 45.8152 48.0069C44.8496 40.2459 40.1786 33.6349 33.628 30C40.1786 26.3651 44.8496 19.7541 45.8152 11.9931C46.0197 10.349 44.6568 9 43 9C41.3431 9 40.0263 10.3524 39.7534 11.9866C39.0656 16.1049 36.9797 19.7498 34 22.4166V12C34 10.3431 32.6568 9 31 9C29.3431 9 28 10.3431 28 12V25.9758Z" fill="url(#paint0_linear)"/>
<defs>
<linearGradient id="paint0_linear" x1="12.35" y1="51" x2="53.2947" y2="18.3558" gradientUnits="userSpaceOnUse">
<stop stop-color="#B99BC9"/>
<stop offset="1" stop-color="#838BC5"/>
</linearGradient>
</defs>
</svg>
