<svg width="40" height="40" viewBox="0 0 40 40" fill="none" xmlns="http://www.w3.org/2000/svg">
<path d="M7.14472 28.7106L10.7236 21.5528C10.893 21.214 11.2393 21 11.618 21H17.1C17.2648 21 17.3589 21.1882 17.26 21.32L13 27H17.5509C17.7241 27 17.8154 27.2051 17.6996 27.3338L9 37L11 29H7.32361C7.17493 29 7.07823 28.8435 7.14472 28.7106Z" fill="url(#paint0_linear)"/>
<path d="M19 31C19 30.4477 19.4477 30 20 30C20.5523 30 21 30.4477 21 31V34C21 34.5523 20.5523 35 20 35C19.4477 35 19 34.5523 19 34V31Z" fill="url(#paint1_linear)"/>
<path d="M25 31C25 30.4477 25.4477 30 26 30C26.5523 30 27 30.4477 27 31V34C27 34.5523 26.5523 35 26 35C25.4477 35 25 34.5523 25 34V31Z" fill="url(#paint2_linear)"/>
<path d="M31 31C31 30.4477 31.4477 30 32 30C32.5523 30 33 30.4477 33 31V34C33 34.5523 32.5523 35 32 35C31.4477 35 31 34.5523 31 34V31Z" fill="url(#paint3_linear)"/>
<path d="M6.4791 10.8539C5.60165 12.4079 5.07523 14.1864 5.00747 16.0817C2.16608 16.5547 0 19.0244 0 22C0 25.3137 2.68629 28 6 28H6.38198L9.82919 21.1056C10.168 20.428 10.8605 20 11.618 20H17.1C18.0889 20 18.6533 21.1289 18.06 21.92L15 26H17.5509C18.5886 26 19.1366 27.2276 18.4454 28H25.4796C23.7857 26.271 22.285 24.1886 20.7754 22.094C20.2215 21.3253 19.6663 20.555 19.1 19.7999C16.8603 16.8137 14.782 14.5018 12.1788 12.9278C10.5572 11.9473 8.71543 11.2436 6.4791 10.8539Z" fill="url(#paint4_linear)"/>
<path d="M7.05151 9.94259C9.21912 10.3635 11.0554 11.08 12.6962 12.0721C15.468 13.7481 17.6397 16.1862 19.9 19.1999C20.495 19.9933 21.0676 20.7877 21.6316 21.5702C23.2313 23.7894 24.7617 25.9126 26.5364 27.6418C26.6612 27.7634 26.787 27.8828 26.9139 28H34C36.7931 28 39.1404 26.0915 39.8091 23.5074C27.835 23.8993 21.1952 14.9959 21.9587 6.37558C20.3346 5.49811 18.4755 5 16.5 5C12.5859 5 9.12857 6.95539 7.05151 9.94259Z" fill="url(#paint5_linear)"/>
<path d="M22.9198 6.95728C22.4961 14.8801 28.7155 22.9697 39.9792 22.5004L39.9793 22.5019C39.993 22.3364 40 22.169 40 22C40 19.0021 37.8014 16.5177 34.9286 16.0714C34.4823 13.1986 31.9979 11 29 11C28.2291 11 27.4922 11.1454 26.8152 11.4102C25.9243 9.60812 24.575 8.07304 22.9198 6.95728Z" fill="url(#paint6_linear)"/>
<defs>
<linearGradient id="paint0_linear" x1="11" y1="21" x2="13" y2="37" gradientUnits="userSpaceOnUse">
<stop stop-color="#FF8C55"/>
<stop offset="1" stop-color="#FF6D55"/>
</linearGradient>
<linearGradient id="paint1_linear" x1="19" y1="30" x2="21" y2="35" gradientUnits="userSpaceOnUse">
<stop stop-color="#8DC6FF"/>
<stop offset="1" stop-color="#41A0FF"/>
</linearGradient>
<linearGradient id="paint2_linear" x1="19" y1="30" x2="21" y2="35" gradientUnits="userSpaceOnUse">
<stop stop-color="#8DC6FF"/>
<stop offset="1" stop-color="#41A0FF"/>
</linearGradient>
<linearGradient id="paint3_linear" x1="19" y1="30" x2="21" y2="35" gradientUnits="userSpaceOnUse">
<stop stop-color="#8DC6FF"/>
<stop offset="1" stop-color="#41A0FF"/>
</linearGradient>
<linearGradient id="paint4_linear" x1="0" y1="5" x2="39" y2="28" gradientUnits="userSpaceOnUse">
<stop stop-color="#BFBFC9"/>
<stop offset="1" stop-color="#8787B1"/>
</linearGradient>
<linearGradient id="paint5_linear" x1="0" y1="5" x2="39" y2="28" gradientUnits="userSpaceOnUse">
<stop stop-color="#BFBFC9"/>
<stop offset="1" stop-color="#8787B1"/>
</linearGradient>
<linearGradient id="paint6_linear" x1="0" y1="5" x2="39" y2="28" gradientUnits="userSpaceOnUse">
<stop stop-color="#BFBFC9"/>
<stop offset="1" stop-color="#8787B1"/>
</linearGradient>
</defs>
</svg>
